<mxfile host="65bd71144e">
    <diagram id="R2lEEEUBdFMjLlhIrx00" name="Page-1">
        <mxGraphModel dx="1071" dy="679" grid="1" gridSize="10" guides="1" tooltips="1" connect="1" arrows="1" fold="1" page="1" pageScale="1" pageWidth="413" pageHeight="583" background="#ffffff" math="0" shadow="1" extFonts="Permanent Marker^https://fonts.googleapis.com/css?family=Permanent+Marker">
            <root>
                <mxCell id="0"/>
                <mxCell id="1" parent="0"/>
                <mxCell id="C-vyLk0tnHw3VtMMgP7b-2" value="shop_photos" style="shape=table;startSize=30;container=1;collapsible=1;childLayout=tableLayout;fixedRows=1;rowLines=0;fontStyle=1;align=center;resizeLast=1;strokeWidth=2;shadow=1;fillColor=#DAE8FC;fontColor=#000000;strokeColor=#4C6487;" parent="1" vertex="1">
                    <mxGeometry x="1250" y="840" width="280" height="210" as="geometry"/>
                </mxCell>
                <mxCell id="C-vyLk0tnHw3VtMMgP7b-3" value="" style="shape=partialRectangle;collapsible=0;dropTarget=0;pointerEvents=0;points=[[0,0.5],[1,0.5]];portConstraint=eastwest;top=0;left=0;right=0;bottom=1;strokeColor=#0e8088;fillColor=#DAE8FC;fontColor=#000000;" parent="C-vyLk0tnHw3VtMMgP7b-2" vertex="1">
                    <mxGeometry y="30" width="280" height="30" as="geometry"/>
                </mxCell>
                <mxCell id="C-vyLk0tnHw3VtMMgP7b-4" value="PK" style="shape=partialRectangle;overflow=hidden;connectable=0;top=0;left=0;bottom=0;right=0;fontStyle=1;strokeColor=#0e8088;fillColor=#DAE8FC;fontColor=#000000;" parent="C-vyLk0tnHw3VtMMgP7b-3" vertex="1">
                    <mxGeometry width="30" height="30" as="geometry"/>
                </mxCell>
                <mxCell id="C-vyLk0tnHw3VtMMgP7b-5" value="id int NOT NULL auto_increment" style="shape=partialRectangle;overflow=hidden;connectable=0;top=0;left=0;bottom=0;right=0;align=left;spacingLeft=6;fontStyle=5;strokeColor=#0e8088;fillColor=#DAE8FC;fontColor=#000000;" parent="C-vyLk0tnHw3VtMMgP7b-3" vertex="1">
                    <mxGeometry x="30" width="250" height="30" as="geometry"/>
                </mxCell>
                <mxCell id="W4QZJKFdE8w0vbNsm4zM-105" value="" style="shape=partialRectangle;collapsible=0;dropTarget=0;pointerEvents=0;points=[[0,0.5],[1,0.5]];portConstraint=eastwest;top=0;left=0;right=0;bottom=0;strokeColor=#0e8088;fillColor=#DAE8FC;fontColor=#000000;" parent="C-vyLk0tnHw3VtMMgP7b-2" vertex="1">
                    <mxGeometry y="60" width="280" height="30" as="geometry"/>
                </mxCell>
                <mxCell id="W4QZJKFdE8w0vbNsm4zM-106" value="FK" style="shape=partialRectangle;overflow=hidden;connectable=0;top=0;left=0;bottom=0;right=0;strokeColor=#0e8088;fillColor=#DAE8FC;fontColor=#000000;" parent="W4QZJKFdE8w0vbNsm4zM-105" vertex="1">
                    <mxGeometry width="30" height="30" as="geometry"/>
                </mxCell>
                <mxCell id="W4QZJKFdE8w0vbNsm4zM-107" value="menu_id varchar(50) NOT NULL" style="shape=partialRectangle;overflow=hidden;connectable=0;top=0;left=0;bottom=0;right=0;align=left;spacingLeft=6;strokeColor=#0e8088;fillColor=#DAE8FC;fontColor=#000000;" parent="W4QZJKFdE8w0vbNsm4zM-105" vertex="1">
                    <mxGeometry x="30" width="250" height="30" as="geometry"/>
                </mxCell>
                <mxCell id="C-vyLk0tnHw3VtMMgP7b-6" value="" style="shape=partialRectangle;collapsible=0;dropTarget=0;pointerEvents=0;points=[[0,0.5],[1,0.5]];portConstraint=eastwest;top=0;left=0;right=0;bottom=0;strokeColor=#0e8088;fillColor=#DAE8FC;fontColor=#000000;" parent="C-vyLk0tnHw3VtMMgP7b-2" vertex="1">
                    <mxGeometry y="90" width="280" height="30" as="geometry"/>
                </mxCell>
                <mxCell id="C-vyLk0tnHw3VtMMgP7b-7" value="" style="shape=partialRectangle;overflow=hidden;connectable=0;top=0;left=0;bottom=0;right=0;strokeColor=#0e8088;fillColor=#DAE8FC;fontColor=#000000;" parent="C-vyLk0tnHw3VtMMgP7b-6" vertex="1">
                    <mxGeometry width="30" height="30" as="geometry"/>
                </mxCell>
                <mxCell id="C-vyLk0tnHw3VtMMgP7b-8" value="name varchar(100) NOT NULL" style="shape=partialRectangle;overflow=hidden;connectable=0;top=0;left=0;bottom=0;right=0;align=left;spacingLeft=6;strokeColor=#0e8088;fillColor=#DAE8FC;fontColor=#000000;" parent="C-vyLk0tnHw3VtMMgP7b-6" vertex="1">
                    <mxGeometry x="30" width="250" height="30" as="geometry"/>
                </mxCell>
                <mxCell id="EuhSBXG35wCDt_b5zXix-90" value="" style="shape=partialRectangle;collapsible=0;dropTarget=0;pointerEvents=0;points=[[0,0.5],[1,0.5]];portConstraint=eastwest;top=0;left=0;right=0;bottom=0;strokeColor=#0e8088;fillColor=#DAE8FC;fontColor=#000000;" parent="C-vyLk0tnHw3VtMMgP7b-2" vertex="1">
                    <mxGeometry y="120" width="280" height="30" as="geometry"/>
                </mxCell>
                <mxCell id="EuhSBXG35wCDt_b5zXix-91" value="" style="shape=partialRectangle;overflow=hidden;connectable=0;top=0;left=0;bottom=0;right=0;strokeColor=#0e8088;fillColor=#DAE8FC;fontColor=#000000;" parent="EuhSBXG35wCDt_b5zXix-90" vertex="1">
                    <mxGeometry width="30" height="30" as="geometry"/>
                </mxCell>
                <mxCell id="EuhSBXG35wCDt_b5zXix-92" value="path varchar(100) NOT NULL" style="shape=partialRectangle;overflow=hidden;connectable=0;top=0;left=0;bottom=0;right=0;align=left;spacingLeft=6;strokeColor=#0e8088;fillColor=#DAE8FC;fontColor=#000000;" parent="EuhSBXG35wCDt_b5zXix-90" vertex="1">
                    <mxGeometry x="30" width="250" height="30" as="geometry"/>
                </mxCell>
                <mxCell id="F1xDEeYdjJ7unh2N5vVD-10" value="" style="shape=partialRectangle;collapsible=0;dropTarget=0;pointerEvents=0;points=[[0,0.5],[1,0.5]];portConstraint=eastwest;top=0;left=0;right=0;bottom=0;strokeColor=#0e8088;fillColor=#DAE8FC;fontColor=#000000;" parent="C-vyLk0tnHw3VtMMgP7b-2" vertex="1">
                    <mxGeometry y="150" width="280" height="30" as="geometry"/>
                </mxCell>
                <mxCell id="F1xDEeYdjJ7unh2N5vVD-11" value="" style="shape=partialRectangle;overflow=hidden;connectable=0;top=0;left=0;bottom=0;right=0;strokeColor=#0e8088;fillColor=#DAE8FC;fontColor=#000000;" parent="F1xDEeYdjJ7unh2N5vVD-10" vertex="1">
                    <mxGeometry width="30" height="30" as="geometry"/>
                </mxCell>
                <mxCell id="F1xDEeYdjJ7unh2N5vVD-12" value="created_at datetime NOT NULL" style="shape=partialRectangle;overflow=hidden;connectable=0;top=0;left=0;bottom=0;right=0;align=left;spacingLeft=6;strokeColor=#0e8088;fillColor=#DAE8FC;fontColor=#000000;" parent="F1xDEeYdjJ7unh2N5vVD-10" vertex="1">
                    <mxGeometry x="30" width="250" height="30" as="geometry"/>
                </mxCell>
                <mxCell id="F1xDEeYdjJ7unh2N5vVD-13" value="" style="shape=partialRectangle;collapsible=0;dropTarget=0;pointerEvents=0;points=[[0,0.5],[1,0.5]];portConstraint=eastwest;top=0;left=0;right=0;bottom=0;strokeColor=#0e8088;fillColor=#DAE8FC;fontColor=#000000;" parent="C-vyLk0tnHw3VtMMgP7b-2" vertex="1">
                    <mxGeometry y="180" width="280" height="30" as="geometry"/>
                </mxCell>
                <mxCell id="F1xDEeYdjJ7unh2N5vVD-14" value="" style="shape=partialRectangle;overflow=hidden;connectable=0;top=0;left=0;bottom=0;right=0;strokeColor=#0e8088;fillColor=#DAE8FC;fontColor=#000000;" parent="F1xDEeYdjJ7unh2N5vVD-13" vertex="1">
                    <mxGeometry width="30" height="30" as="geometry"/>
                </mxCell>
                <mxCell id="F1xDEeYdjJ7unh2N5vVD-15" value="updated_at datetime NOT NULL" style="shape=partialRectangle;overflow=hidden;connectable=0;top=0;left=0;bottom=0;right=0;align=left;spacingLeft=6;strokeColor=#0e8088;fillColor=#DAE8FC;fontColor=#000000;" parent="F1xDEeYdjJ7unh2N5vVD-13" vertex="1">
                    <mxGeometry x="30" width="250" height="30" as="geometry"/>
                </mxCell>
                <mxCell id="C-vyLk0tnHw3VtMMgP7b-13" value="shop_info" style="shape=table;startSize=30;container=1;collapsible=1;childLayout=tableLayout;fixedRows=1;rowLines=0;fontStyle=1;align=center;resizeLast=1;fillColor=#dae8fc;strokeColor=#4C6487;strokeWidth=2;shadow=1;fontColor=#000000;" parent="1" vertex="1">
                    <mxGeometry x="440" y="720" width="280" height="330" as="geometry"/>
                </mxCell>
                <mxCell id="C-vyLk0tnHw3VtMMgP7b-14" value="" style="shape=partialRectangle;collapsible=0;dropTarget=0;pointerEvents=0;fillColor=#dae8fc;points=[[0,0.5],[1,0.5]];portConstraint=eastwest;top=0;left=0;right=0;bottom=1;strokeColor=#6c8ebf;fontColor=#000000;" parent="C-vyLk0tnHw3VtMMgP7b-13" vertex="1">
                    <mxGeometry y="30" width="280" height="30" as="geometry"/>
                </mxCell>
                <mxCell id="C-vyLk0tnHw3VtMMgP7b-15" value="PK" style="shape=partialRectangle;overflow=hidden;connectable=0;fillColor=#dae8fc;top=0;left=0;bottom=0;right=0;fontStyle=1;strokeColor=#6c8ebf;fontColor=#000000;" parent="C-vyLk0tnHw3VtMMgP7b-14" vertex="1">
                    <mxGeometry width="30" height="30" as="geometry"/>
                </mxCell>
                <mxCell id="C-vyLk0tnHw3VtMMgP7b-16" value="id int NOT NULL auto_increment" style="shape=partialRectangle;overflow=hidden;connectable=0;fillColor=#dae8fc;top=0;left=0;bottom=0;right=0;align=left;spacingLeft=6;fontStyle=5;strokeColor=#6c8ebf;fontColor=#000000;" parent="C-vyLk0tnHw3VtMMgP7b-14" vertex="1">
                    <mxGeometry x="30" width="250" height="30" as="geometry"/>
                </mxCell>
                <mxCell id="lYWtgUgMndmY4nlNP9k3-1" value="" style="shape=partialRectangle;collapsible=0;dropTarget=0;pointerEvents=0;fillColor=#dae8fc;points=[[0,0.5],[1,0.5]];portConstraint=eastwest;top=0;left=0;right=0;bottom=0;strokeColor=#6c8ebf;fontColor=#000000;" parent="C-vyLk0tnHw3VtMMgP7b-13" vertex="1">
                    <mxGeometry y="60" width="280" height="30" as="geometry"/>
                </mxCell>
                <mxCell id="lYWtgUgMndmY4nlNP9k3-2" value="FK" style="shape=partialRectangle;overflow=hidden;connectable=0;fillColor=#dae8fc;top=0;left=0;bottom=0;right=0;strokeColor=#6c8ebf;fontColor=#000000;" parent="lYWtgUgMndmY4nlNP9k3-1" vertex="1">
                    <mxGeometry width="30" height="30" as="geometry"/>
                </mxCell>
                <mxCell id="lYWtgUgMndmY4nlNP9k3-3" value="shop_account_id int NOT NULL" style="shape=partialRectangle;overflow=hidden;connectable=0;fillColor=#dae8fc;top=0;left=0;bottom=0;right=0;align=left;spacingLeft=6;strokeColor=#6c8ebf;fontColor=#000000;" parent="lYWtgUgMndmY4nlNP9k3-1" vertex="1">
                    <mxGeometry x="30" width="250" height="30" as="geometry"/>
                </mxCell>
                <mxCell id="C-vyLk0tnHw3VtMMgP7b-17" value="" style="shape=partialRectangle;collapsible=0;dropTarget=0;pointerEvents=0;fillColor=#dae8fc;points=[[0,0.5],[1,0.5]];portConstraint=eastwest;top=0;left=0;right=0;bottom=0;strokeColor=#6c8ebf;fontColor=#000000;" parent="C-vyLk0tnHw3VtMMgP7b-13" vertex="1">
                    <mxGeometry y="90" width="280" height="30" as="geometry"/>
                </mxCell>
                <mxCell id="C-vyLk0tnHw3VtMMgP7b-18" value="" style="shape=partialRectangle;overflow=hidden;connectable=0;fillColor=#dae8fc;top=0;left=0;bottom=0;right=0;strokeColor=#6c8ebf;fontColor=#000000;" parent="C-vyLk0tnHw3VtMMgP7b-17" vertex="1">
                    <mxGeometry width="30" height="30" as="geometry"/>
                </mxCell>
                <mxCell id="C-vyLk0tnHw3VtMMgP7b-19" value="name varchar(100) NOT NULL" style="shape=partialRectangle;overflow=hidden;connectable=0;fillColor=#dae8fc;top=0;left=0;bottom=0;right=0;align=left;spacingLeft=6;strokeColor=#6c8ebf;fontColor=#000000;" parent="C-vyLk0tnHw3VtMMgP7b-17" vertex="1">
                    <mxGeometry x="30" width="250" height="30" as="geometry"/>
                </mxCell>
                <mxCell id="W4QZJKFdE8w0vbNsm4zM-34" value="" style="shape=partialRectangle;collapsible=0;dropTarget=0;pointerEvents=0;fillColor=#dae8fc;points=[[0,0.5],[1,0.5]];portConstraint=eastwest;top=0;left=0;right=0;bottom=0;strokeColor=#6c8ebf;fontColor=#000000;" parent="C-vyLk0tnHw3VtMMgP7b-13" vertex="1">
                    <mxGeometry y="120" width="280" height="30" as="geometry"/>
                </mxCell>
                <mxCell id="W4QZJKFdE8w0vbNsm4zM-35" value="" style="shape=partialRectangle;overflow=hidden;connectable=0;fillColor=#dae8fc;top=0;left=0;bottom=0;right=0;strokeColor=#6c8ebf;fontColor=#000000;" parent="W4QZJKFdE8w0vbNsm4zM-34" vertex="1">
                    <mxGeometry width="30" height="30" as="geometry"/>
                </mxCell>
                <mxCell id="W4QZJKFdE8w0vbNsm4zM-36" value="address varchar(50) NOT NULL" style="shape=partialRectangle;overflow=hidden;connectable=0;fillColor=#dae8fc;top=0;left=0;bottom=0;right=0;align=left;spacingLeft=6;strokeColor=#6c8ebf;fontColor=#000000;" parent="W4QZJKFdE8w0vbNsm4zM-34" vertex="1">
                    <mxGeometry x="30" width="250" height="30" as="geometry"/>
                </mxCell>
                <mxCell id="W4QZJKFdE8w0vbNsm4zM-40" value="" style="shape=partialRectangle;collapsible=0;dropTarget=0;pointerEvents=0;fillColor=#dae8fc;points=[[0,0.5],[1,0.5]];portConstraint=eastwest;top=0;left=0;right=0;bottom=0;strokeColor=#6c8ebf;fontColor=#000000;" parent="C-vyLk0tnHw3VtMMgP7b-13" vertex="1">
                    <mxGeometry y="150" width="280" height="30" as="geometry"/>
                </mxCell>
                <mxCell id="W4QZJKFdE8w0vbNsm4zM-41" value="" style="shape=partialRectangle;overflow=hidden;connectable=0;fillColor=#dae8fc;top=0;left=0;bottom=0;right=0;strokeColor=#6c8ebf;fontColor=#000000;" parent="W4QZJKFdE8w0vbNsm4zM-40" vertex="1">
                    <mxGeometry width="30" height="30" as="geometry"/>
                </mxCell>
                <mxCell id="W4QZJKFdE8w0vbNsm4zM-42" value="tel varchar(50) NOT NULL" style="shape=partialRectangle;overflow=hidden;connectable=0;fillColor=#dae8fc;top=0;left=0;bottom=0;right=0;align=left;spacingLeft=6;strokeColor=#6c8ebf;fontColor=#000000;" parent="W4QZJKFdE8w0vbNsm4zM-40" vertex="1">
                    <mxGeometry x="30" width="250" height="30" as="geometry"/>
                </mxCell>
                <mxCell id="W4QZJKFdE8w0vbNsm4zM-43" value="" style="shape=partialRectangle;collapsible=0;dropTarget=0;pointerEvents=0;fillColor=#dae8fc;points=[[0,0.5],[1,0.5]];portConstraint=eastwest;top=0;left=0;right=0;bottom=0;strokeColor=#6c8ebf;fontColor=#000000;" parent="C-vyLk0tnHw3VtMMgP7b-13" vertex="1">
                    <mxGeometry y="180" width="280" height="30" as="geometry"/>
                </mxCell>
                <mxCell id="W4QZJKFdE8w0vbNsm4zM-44" value="" style="shape=partialRectangle;overflow=hidden;connectable=0;fillColor=#dae8fc;top=0;left=0;bottom=0;right=0;strokeColor=#6c8ebf;fontColor=#000000;" parent="W4QZJKFdE8w0vbNsm4zM-43" vertex="1">
                    <mxGeometry width="30" height="30" as="geometry"/>
                </mxCell>
                <mxCell id="W4QZJKFdE8w0vbNsm4zM-45" value="opentime datetime NOT NULL" style="shape=partialRectangle;overflow=hidden;connectable=0;fillColor=#dae8fc;top=0;left=0;bottom=0;right=0;align=left;spacingLeft=6;strokeColor=#6c8ebf;fontColor=#000000;" parent="W4QZJKFdE8w0vbNsm4zM-43" vertex="1">
                    <mxGeometry x="30" width="250" height="30" as="geometry"/>
                </mxCell>
                <mxCell id="F1xDEeYdjJ7unh2N5vVD-1" value="" style="shape=partialRectangle;collapsible=0;dropTarget=0;pointerEvents=0;fillColor=#dae8fc;points=[[0,0.5],[1,0.5]];portConstraint=eastwest;top=0;left=0;right=0;bottom=0;strokeColor=#6c8ebf;fontColor=#000000;" parent="C-vyLk0tnHw3VtMMgP7b-13" vertex="1">
                    <mxGeometry y="210" width="280" height="30" as="geometry"/>
                </mxCell>
                <mxCell id="F1xDEeYdjJ7unh2N5vVD-2" value="" style="shape=partialRectangle;overflow=hidden;connectable=0;fillColor=#dae8fc;top=0;left=0;bottom=0;right=0;strokeColor=#6c8ebf;fontColor=#000000;" parent="F1xDEeYdjJ7unh2N5vVD-1" vertex="1">
                    <mxGeometry width="30" height="30" as="geometry"/>
                </mxCell>
                <mxCell id="F1xDEeYdjJ7unh2N5vVD-3" value="closetime datetime NOT NULL" style="shape=partialRectangle;overflow=hidden;connectable=0;fillColor=#dae8fc;top=0;left=0;bottom=0;right=0;align=left;spacingLeft=6;strokeColor=#6c8ebf;fontColor=#000000;" parent="F1xDEeYdjJ7unh2N5vVD-1" vertex="1">
                    <mxGeometry x="30" width="250" height="30" as="geometry"/>
                </mxCell>
                <mxCell id="W4QZJKFdE8w0vbNsm4zM-46" value="" style="shape=partialRectangle;collapsible=0;dropTarget=0;pointerEvents=0;fillColor=#dae8fc;points=[[0,0.5],[1,0.5]];portConstraint=eastwest;top=0;left=0;right=0;bottom=0;strokeColor=#6c8ebf;fontColor=#000000;" parent="C-vyLk0tnHw3VtMMgP7b-13" vertex="1">
                    <mxGeometry y="240" width="280" height="30" as="geometry"/>
                </mxCell>
                <mxCell id="W4QZJKFdE8w0vbNsm4zM-47" value="" style="shape=partialRectangle;overflow=hidden;connectable=0;fillColor=#dae8fc;top=0;left=0;bottom=0;right=0;strokeColor=#6c8ebf;fontColor=#000000;" parent="W4QZJKFdE8w0vbNsm4zM-46" vertex="1">
                    <mxGeometry width="30" height="30" as="geometry"/>
                </mxCell>
                <mxCell id="W4QZJKFdE8w0vbNsm4zM-48" value="station_id int NOT NULL" style="shape=partialRectangle;overflow=hidden;connectable=0;fillColor=#dae8fc;top=0;left=0;bottom=0;right=0;align=left;spacingLeft=6;strokeColor=#6c8ebf;fontColor=#000000;" parent="W4QZJKFdE8w0vbNsm4zM-46" vertex="1">
                    <mxGeometry x="30" width="250" height="30" as="geometry"/>
                </mxCell>
                <mxCell id="F1xDEeYdjJ7unh2N5vVD-16" value="" style="shape=partialRectangle;collapsible=0;dropTarget=0;pointerEvents=0;fillColor=#dae8fc;points=[[0,0.5],[1,0.5]];portConstraint=eastwest;top=0;left=0;right=0;bottom=0;strokeColor=#6c8ebf;fontColor=#000000;" parent="C-vyLk0tnHw3VtMMgP7b-13" vertex="1">
                    <mxGeometry y="270" width="280" height="30" as="geometry"/>
                </mxCell>
                <mxCell id="F1xDEeYdjJ7unh2N5vVD-17" value="" style="shape=partialRectangle;overflow=hidden;connectable=0;fillColor=#dae8fc;top=0;left=0;bottom=0;right=0;strokeColor=#6c8ebf;fontColor=#000000;" parent="F1xDEeYdjJ7unh2N5vVD-16" vertex="1">
                    <mxGeometry width="30" height="30" as="geometry"/>
                </mxCell>
                <mxCell id="F1xDEeYdjJ7unh2N5vVD-18" value="created_at datetime NOT NULL" style="shape=partialRectangle;overflow=hidden;connectable=0;fillColor=#dae8fc;top=0;left=0;bottom=0;right=0;align=left;spacingLeft=6;strokeColor=#6c8ebf;fontColor=#000000;" parent="F1xDEeYdjJ7unh2N5vVD-16" vertex="1">
                    <mxGeometry x="30" width="250" height="30" as="geometry"/>
                </mxCell>
                <mxCell id="F1xDEeYdjJ7unh2N5vVD-19" value="" style="shape=partialRectangle;collapsible=0;dropTarget=0;pointerEvents=0;fillColor=#dae8fc;points=[[0,0.5],[1,0.5]];portConstraint=eastwest;top=0;left=0;right=0;bottom=0;strokeColor=#6c8ebf;fontColor=#000000;" parent="C-vyLk0tnHw3VtMMgP7b-13" vertex="1">
                    <mxGeometry y="300" width="280" height="30" as="geometry"/>
                </mxCell>
                <mxCell id="F1xDEeYdjJ7unh2N5vVD-20" value="" style="shape=partialRectangle;overflow=hidden;connectable=0;fillColor=#dae8fc;top=0;left=0;bottom=0;right=0;strokeColor=#6c8ebf;fontColor=#000000;" parent="F1xDEeYdjJ7unh2N5vVD-19" vertex="1">
                    <mxGeometry width="30" height="30" as="geometry"/>
                </mxCell>
                <mxCell id="F1xDEeYdjJ7unh2N5vVD-21" value="updated_at datetime NOT NULL" style="shape=partialRectangle;overflow=hidden;connectable=0;fillColor=#dae8fc;top=0;left=0;bottom=0;right=0;align=left;spacingLeft=6;strokeColor=#6c8ebf;fontColor=#000000;" parent="F1xDEeYdjJ7unh2N5vVD-19" vertex="1">
                    <mxGeometry x="30" width="250" height="30" as="geometry"/>
                </mxCell>
                <mxCell id="C-vyLk0tnHw3VtMMgP7b-23" value="user_accounts" style="shape=table;startSize=30;container=1;collapsible=1;childLayout=tableLayout;fixedRows=1;rowLines=0;fontStyle=1;align=center;resizeLast=1;fillColor=#fff2cc;strokeWidth=2;strokeColor=#A18941;shadow=1;fontColor=#000000;" parent="1" vertex="1">
                    <mxGeometry x="80" y="1330" width="280" height="180" as="geometry"/>
                </mxCell>
                <mxCell id="C-vyLk0tnHw3VtMMgP7b-24" value="" style="shape=partialRectangle;collapsible=0;dropTarget=0;pointerEvents=0;fillColor=#fff2cc;points=[[0,0.5],[1,0.5]];portConstraint=eastwest;top=0;left=0;right=0;bottom=1;strokeColor=#d6b656;fontColor=#000000;" parent="C-vyLk0tnHw3VtMMgP7b-23" vertex="1">
                    <mxGeometry y="30" width="280" height="30" as="geometry"/>
                </mxCell>
                <mxCell id="C-vyLk0tnHw3VtMMgP7b-25" value="PK" style="shape=partialRectangle;overflow=hidden;connectable=0;fillColor=#fff2cc;top=0;left=0;bottom=0;right=0;fontStyle=1;strokeColor=#d6b656;fontColor=#000000;" parent="C-vyLk0tnHw3VtMMgP7b-24" vertex="1">
                    <mxGeometry width="30" height="30" as="geometry"/>
                </mxCell>
                <mxCell id="C-vyLk0tnHw3VtMMgP7b-26" value="id int NOT NULL auto_increment" style="shape=partialRectangle;overflow=hidden;connectable=0;fillColor=#fff2cc;top=0;left=0;bottom=0;right=0;align=left;spacingLeft=6;fontStyle=5;strokeColor=#d6b656;fontColor=#000000;" parent="C-vyLk0tnHw3VtMMgP7b-24" vertex="1">
                    <mxGeometry x="30" width="250" height="30" as="geometry"/>
                </mxCell>
                <mxCell id="C-vyLk0tnHw3VtMMgP7b-27" value="" style="shape=partialRectangle;collapsible=0;dropTarget=0;pointerEvents=0;fillColor=#fff2cc;points=[[0,0.5],[1,0.5]];portConstraint=eastwest;top=0;left=0;right=0;bottom=0;strokeColor=#d6b656;fontColor=#000000;" parent="C-vyLk0tnHw3VtMMgP7b-23" vertex="1">
                    <mxGeometry y="60" width="280" height="30" as="geometry"/>
                </mxCell>
                <mxCell id="C-vyLk0tnHw3VtMMgP7b-28" value="" style="shape=partialRectangle;overflow=hidden;connectable=0;fillColor=#fff2cc;top=0;left=0;bottom=0;right=0;strokeColor=#d6b656;fontColor=#000000;" parent="C-vyLk0tnHw3VtMMgP7b-27" vertex="1">
                    <mxGeometry width="30" height="30" as="geometry"/>
                </mxCell>
                <mxCell id="C-vyLk0tnHw3VtMMgP7b-29" value="email varchar(70) NOT NULL" style="shape=partialRectangle;overflow=hidden;connectable=0;fillColor=#fff2cc;top=0;left=0;bottom=0;right=0;align=left;spacingLeft=6;strokeColor=#9C843F;fontColor=#000000;" parent="C-vyLk0tnHw3VtMMgP7b-27" vertex="1">
                    <mxGeometry x="30" width="250" height="30" as="geometry"/>
                </mxCell>
                <mxCell id="W4QZJKFdE8w0vbNsm4zM-64" value="" style="shape=partialRectangle;collapsible=0;dropTarget=0;pointerEvents=0;fillColor=#fff2cc;points=[[0,0.5],[1,0.5]];portConstraint=eastwest;top=0;left=0;right=0;bottom=0;strokeColor=#d6b656;fontColor=#000000;" parent="C-vyLk0tnHw3VtMMgP7b-23" vertex="1">
                    <mxGeometry y="90" width="280" height="30" as="geometry"/>
                </mxCell>
                <mxCell id="W4QZJKFdE8w0vbNsm4zM-65" value="" style="shape=partialRectangle;overflow=hidden;connectable=0;fillColor=#fff2cc;top=0;left=0;bottom=0;right=0;strokeColor=#d6b656;fontColor=#000000;" parent="W4QZJKFdE8w0vbNsm4zM-64" vertex="1">
                    <mxGeometry width="30" height="30" as="geometry"/>
                </mxCell>
                <mxCell id="W4QZJKFdE8w0vbNsm4zM-66" value="password varchar(20) NOT NULL" style="shape=partialRectangle;overflow=hidden;connectable=0;fillColor=#fff2cc;top=0;left=0;bottom=0;right=0;align=left;spacingLeft=6;strokeColor=#d6b656;fontColor=#000000;" parent="W4QZJKFdE8w0vbNsm4zM-64" vertex="1">
                    <mxGeometry x="30" width="250" height="30" as="geometry"/>
                </mxCell>
                <mxCell id="F1xDEeYdjJ7unh2N5vVD-4" value="" style="shape=partialRectangle;collapsible=0;dropTarget=0;pointerEvents=0;fillColor=#fff2cc;points=[[0,0.5],[1,0.5]];portConstraint=eastwest;top=0;left=0;right=0;bottom=0;strokeColor=#d6b656;fontColor=#000000;" parent="C-vyLk0tnHw3VtMMgP7b-23" vertex="1">
                    <mxGeometry y="120" width="280" height="30" as="geometry"/>
                </mxCell>
                <mxCell id="F1xDEeYdjJ7unh2N5vVD-5" value="" style="shape=partialRectangle;overflow=hidden;connectable=0;fillColor=#fff2cc;top=0;left=0;bottom=0;right=0;strokeColor=#d6b656;fontColor=#000000;" parent="F1xDEeYdjJ7unh2N5vVD-4" vertex="1">
                    <mxGeometry width="30" height="30" as="geometry"/>
                </mxCell>
                <mxCell id="F1xDEeYdjJ7unh2N5vVD-6" value="created_at datetime NOT NULL" style="shape=partialRectangle;overflow=hidden;connectable=0;fillColor=#fff2cc;top=0;left=0;bottom=0;right=0;align=left;spacingLeft=6;strokeColor=#d6b656;fontColor=#000000;" parent="F1xDEeYdjJ7unh2N5vVD-4" vertex="1">
                    <mxGeometry x="30" width="250" height="30" as="geometry"/>
                </mxCell>
                <mxCell id="F1xDEeYdjJ7unh2N5vVD-7" value="" style="shape=partialRectangle;collapsible=0;dropTarget=0;pointerEvents=0;fillColor=#fff2cc;points=[[0,0.5],[1,0.5]];portConstraint=eastwest;top=0;left=0;right=0;bottom=0;strokeColor=#d6b656;fontColor=#000000;" parent="C-vyLk0tnHw3VtMMgP7b-23" vertex="1">
                    <mxGeometry y="150" width="280" height="30" as="geometry"/>
                </mxCell>
                <mxCell id="F1xDEeYdjJ7unh2N5vVD-8" value="" style="shape=partialRectangle;overflow=hidden;connectable=0;fillColor=#fff2cc;top=0;left=0;bottom=0;right=0;strokeColor=#d6b656;fontColor=#000000;" parent="F1xDEeYdjJ7unh2N5vVD-7" vertex="1">
                    <mxGeometry width="30" height="30" as="geometry"/>
                </mxCell>
                <mxCell id="F1xDEeYdjJ7unh2N5vVD-9" value="updated_at datetime NOT NULL" style="shape=partialRectangle;overflow=hidden;connectable=0;fillColor=#fff2cc;top=0;left=0;bottom=0;right=0;align=left;spacingLeft=6;strokeColor=#d6b656;fontColor=#000000;" parent="F1xDEeYdjJ7unh2N5vVD-7" vertex="1">
                    <mxGeometry x="30" width="250" height="30" as="geometry"/>
                </mxCell>
                <mxCell id="EuhSBXG35wCDt_b5zXix-94" style="edgeStyle=orthogonalEdgeStyle;rounded=1;orthogonalLoop=1;jettySize=auto;html=1;exitX=1;exitY=0.5;exitDx=0;exitDy=0;entryX=0;entryY=0.5;entryDx=0;entryDy=0;shadow=0;startArrow=ERone;startFill=0;endArrow=ERzeroToMany;endFill=1;strokeColor=#6C8EBF;strokeWidth=1;fontColor=#000000;" parent="1" source="C-vyLk0tnHw3VtMMgP7b-14" target="EuhSBXG35wCDt_b5zXix-56" edge="1">
                    <mxGeometry relative="1" as="geometry"/>
                </mxCell>
                <mxCell id="W4QZJKFdE8w0vbNsm4zM-70" value="shop_accounts" style="shape=table;startSize=30;container=1;collapsible=1;childLayout=tableLayout;fixedRows=1;rowLines=0;fontStyle=1;align=center;resizeLast=1;fillColor=#dae8fc;strokeColor=#4C6487;strokeWidth=2;shadow=1;fontColor=#000000;" parent="1" vertex="1">
                    <mxGeometry x="80" y="760" width="280" height="180" as="geometry"/>
                </mxCell>
                <mxCell id="W4QZJKFdE8w0vbNsm4zM-71" value="" style="shape=partialRectangle;collapsible=0;dropTarget=0;pointerEvents=0;fillColor=#dae8fc;points=[[0,0.5],[1,0.5]];portConstraint=eastwest;top=0;left=0;right=0;bottom=1;strokeColor=#6c8ebf;fontColor=#000000;" parent="W4QZJKFdE8w0vbNsm4zM-70" vertex="1">
                    <mxGeometry y="30" width="280" height="30" as="geometry"/>
                </mxCell>
                <mxCell id="W4QZJKFdE8w0vbNsm4zM-72" value="PK" style="shape=partialRectangle;overflow=hidden;connectable=0;fillColor=#dae8fc;top=0;left=0;bottom=0;right=0;fontStyle=1;strokeColor=#6c8ebf;fontColor=#000000;" parent="W4QZJKFdE8w0vbNsm4zM-71" vertex="1">
                    <mxGeometry width="30" height="30" as="geometry"/>
                </mxCell>
                <mxCell id="W4QZJKFdE8w0vbNsm4zM-73" value="id int NOT NULL auto_increment" style="shape=partialRectangle;overflow=hidden;connectable=0;fillColor=#dae8fc;top=0;left=0;bottom=0;right=0;align=left;spacingLeft=6;fontStyle=5;strokeColor=#6c8ebf;fontColor=#000000;" parent="W4QZJKFdE8w0vbNsm4zM-71" vertex="1">
                    <mxGeometry x="30" width="250" height="30" as="geometry"/>
                </mxCell>
                <mxCell id="W4QZJKFdE8w0vbNsm4zM-74" value="" style="shape=partialRectangle;collapsible=0;dropTarget=0;pointerEvents=0;fillColor=#dae8fc;points=[[0,0.5],[1,0.5]];portConstraint=eastwest;top=0;left=0;right=0;bottom=0;strokeColor=#6c8ebf;fontColor=#000000;" parent="W4QZJKFdE8w0vbNsm4zM-70" vertex="1">
                    <mxGeometry y="60" width="280" height="30" as="geometry"/>
                </mxCell>
                <mxCell id="W4QZJKFdE8w0vbNsm4zM-75" value="" style="shape=partialRectangle;overflow=hidden;connectable=0;fillColor=#dae8fc;top=0;left=0;bottom=0;right=0;strokeColor=#6c8ebf;fontColor=#000000;" parent="W4QZJKFdE8w0vbNsm4zM-74" vertex="1">
                    <mxGeometry width="30" height="30" as="geometry"/>
                </mxCell>
                <mxCell id="W4QZJKFdE8w0vbNsm4zM-76" value="email varchar (70) NOT NULL" style="shape=partialRectangle;overflow=hidden;connectable=0;fillColor=#dae8fc;top=0;left=0;bottom=0;right=0;align=left;spacingLeft=6;strokeColor=#6c8ebf;fontColor=#000000;" parent="W4QZJKFdE8w0vbNsm4zM-74" vertex="1">
                    <mxGeometry x="30" width="250" height="30" as="geometry"/>
                </mxCell>
                <mxCell id="W4QZJKFdE8w0vbNsm4zM-77" value="" style="shape=partialRectangle;collapsible=0;dropTarget=0;pointerEvents=0;fillColor=#dae8fc;points=[[0,0.5],[1,0.5]];portConstraint=eastwest;top=0;left=0;right=0;bottom=0;strokeColor=#6c8ebf;fontColor=#000000;" parent="W4QZJKFdE8w0vbNsm4zM-70" vertex="1">
                    <mxGeometry y="90" width="280" height="30" as="geometry"/>
                </mxCell>
                <mxCell id="W4QZJKFdE8w0vbNsm4zM-78" value="" style="shape=partialRectangle;overflow=hidden;connectable=0;fillColor=#dae8fc;top=0;left=0;bottom=0;right=0;strokeColor=#6c8ebf;fontColor=#000000;" parent="W4QZJKFdE8w0vbNsm4zM-77" vertex="1">
                    <mxGeometry width="30" height="30" as="geometry"/>
                </mxCell>
                <mxCell id="W4QZJKFdE8w0vbNsm4zM-79" value="password varchar(20) NOT NULL" style="shape=partialRectangle;overflow=hidden;connectable=0;fillColor=#dae8fc;top=0;left=0;bottom=0;right=0;align=left;spacingLeft=6;strokeColor=#6c8ebf;fontColor=#000000;" parent="W4QZJKFdE8w0vbNsm4zM-77" vertex="1">
                    <mxGeometry x="30" width="250" height="30" as="geometry"/>
                </mxCell>
                <mxCell id="F1xDEeYdjJ7unh2N5vVD-22" value="" style="shape=partialRectangle;collapsible=0;dropTarget=0;pointerEvents=0;fillColor=#dae8fc;points=[[0,0.5],[1,0.5]];portConstraint=eastwest;top=0;left=0;right=0;bottom=0;strokeColor=#6c8ebf;fontColor=#000000;" parent="W4QZJKFdE8w0vbNsm4zM-70" vertex="1">
                    <mxGeometry y="120" width="280" height="30" as="geometry"/>
                </mxCell>
                <mxCell id="F1xDEeYdjJ7unh2N5vVD-23" value="" style="shape=partialRectangle;overflow=hidden;connectable=0;fillColor=#dae8fc;top=0;left=0;bottom=0;right=0;strokeColor=#6c8ebf;fontColor=#000000;" parent="F1xDEeYdjJ7unh2N5vVD-22" vertex="1">
                    <mxGeometry width="30" height="30" as="geometry"/>
                </mxCell>
                <mxCell id="F1xDEeYdjJ7unh2N5vVD-24" value="created_at datetime NOT NULL" style="shape=partialRectangle;overflow=hidden;connectable=0;fillColor=#dae8fc;top=0;left=0;bottom=0;right=0;align=left;spacingLeft=6;strokeColor=#6c8ebf;fontColor=#000000;" parent="F1xDEeYdjJ7unh2N5vVD-22" vertex="1">
                    <mxGeometry x="30" width="250" height="30" as="geometry"/>
                </mxCell>
                <mxCell id="F1xDEeYdjJ7unh2N5vVD-25" value="" style="shape=partialRectangle;collapsible=0;dropTarget=0;pointerEvents=0;fillColor=#dae8fc;points=[[0,0.5],[1,0.5]];portConstraint=eastwest;top=0;left=0;right=0;bottom=0;strokeColor=#6c8ebf;fontColor=#000000;" parent="W4QZJKFdE8w0vbNsm4zM-70" vertex="1">
                    <mxGeometry y="150" width="280" height="30" as="geometry"/>
                </mxCell>
                <mxCell id="F1xDEeYdjJ7unh2N5vVD-26" value="" style="shape=partialRectangle;overflow=hidden;connectable=0;fillColor=#dae8fc;top=0;left=0;bottom=0;right=0;strokeColor=#6c8ebf;fontColor=#000000;" parent="F1xDEeYdjJ7unh2N5vVD-25" vertex="1">
                    <mxGeometry width="30" height="30" as="geometry"/>
                </mxCell>
                <mxCell id="F1xDEeYdjJ7unh2N5vVD-27" value="updated_at datetime NOT NULL" style="shape=partialRectangle;overflow=hidden;connectable=0;fillColor=#dae8fc;top=0;left=0;bottom=0;right=0;align=left;spacingLeft=6;strokeColor=#6c8ebf;fontColor=#000000;" parent="F1xDEeYdjJ7unh2N5vVD-25" vertex="1">
                    <mxGeometry x="30" width="250" height="30" as="geometry"/>
                </mxCell>
                <mxCell id="c16gRC2Nv8gJjdAaMNAA-7" value="prefecture_masters" style="shape=table;startSize=30;container=1;collapsible=1;childLayout=tableLayout;fixedRows=1;rowLines=0;fontStyle=1;align=center;resizeLast=1;fillColor=#d5e8d4;strokeColor=#6D9656;strokeWidth=2;shadow=1;fontColor=#000000;" parent="1" vertex="1">
                    <mxGeometry x="80" y="80" width="280" height="90" as="geometry"/>
                </mxCell>
                <mxCell id="c16gRC2Nv8gJjdAaMNAA-8" value="" style="shape=partialRectangle;collapsible=0;dropTarget=0;pointerEvents=0;fillColor=#d5e8d4;points=[[0,0.5],[1,0.5]];portConstraint=eastwest;top=0;left=0;right=0;bottom=1;strokeColor=#82b366;shadow=1;fontColor=#000000;" parent="c16gRC2Nv8gJjdAaMNAA-7" vertex="1">
                    <mxGeometry y="30" width="280" height="30" as="geometry"/>
                </mxCell>
                <mxCell id="c16gRC2Nv8gJjdAaMNAA-9" value="PK" style="shape=partialRectangle;overflow=hidden;connectable=0;fillColor=#d5e8d4;top=0;left=0;bottom=0;right=0;fontStyle=1;strokeColor=#82b366;shadow=1;fontColor=#000000;" parent="c16gRC2Nv8gJjdAaMNAA-8" vertex="1">
                    <mxGeometry width="30" height="30" as="geometry"/>
                </mxCell>
                <mxCell id="c16gRC2Nv8gJjdAaMNAA-10" value="id int NOT NULL auto_increment" style="shape=partialRectangle;overflow=hidden;connectable=0;fillColor=#d5e8d4;top=0;left=0;bottom=0;right=0;align=left;spacingLeft=6;fontStyle=5;strokeColor=#82b366;shadow=1;fontColor=#000000;" parent="c16gRC2Nv8gJjdAaMNAA-8" vertex="1">
                    <mxGeometry x="30" width="250" height="30" as="geometry"/>
                </mxCell>
                <mxCell id="c16gRC2Nv8gJjdAaMNAA-11" value="" style="shape=partialRectangle;collapsible=0;dropTarget=0;pointerEvents=0;fillColor=#d5e8d4;points=[[0,0.5],[1,0.5]];portConstraint=eastwest;top=0;left=0;right=0;bottom=0;strokeColor=#82b366;shadow=1;fontColor=#000000;" parent="c16gRC2Nv8gJjdAaMNAA-7" vertex="1">
                    <mxGeometry y="60" width="280" height="30" as="geometry"/>
                </mxCell>
                <mxCell id="c16gRC2Nv8gJjdAaMNAA-12" value="" style="shape=partialRectangle;overflow=hidden;connectable=0;fillColor=#d5e8d4;top=0;left=0;bottom=0;right=0;strokeColor=#82b366;shadow=1;fontColor=#000000;" parent="c16gRC2Nv8gJjdAaMNAA-11" vertex="1">
                    <mxGeometry width="30" height="30" as="geometry"/>
                </mxCell>
                <mxCell id="c16gRC2Nv8gJjdAaMNAA-13" value="name varchar (10) NOT NULL" style="shape=partialRectangle;overflow=hidden;connectable=0;fillColor=#d5e8d4;top=0;left=0;bottom=0;right=0;align=left;spacingLeft=6;strokeColor=#82b366;shadow=1;fontColor=#000000;" parent="c16gRC2Nv8gJjdAaMNAA-11" vertex="1">
                    <mxGeometry x="30" width="250" height="30" as="geometry"/>
                </mxCell>
                <mxCell id="c16gRC2Nv8gJjdAaMNAA-24" value="area_masters" style="shape=table;startSize=30;container=1;collapsible=1;childLayout=tableLayout;fixedRows=1;rowLines=0;fontStyle=1;align=center;resizeLast=1;fillColor=#d5e8d4;strokeColor=#6D9656;strokeWidth=2;shadow=1;fontColor=#000000;" parent="1" vertex="1">
                    <mxGeometry x="440" y="80" width="280" height="120" as="geometry"/>
                </mxCell>
                <mxCell id="c16gRC2Nv8gJjdAaMNAA-25" value="" style="shape=partialRectangle;collapsible=0;dropTarget=0;pointerEvents=0;fillColor=#d5e8d4;points=[[0,0.5],[1,0.5]];portConstraint=eastwest;top=0;left=0;right=0;bottom=1;strokeColor=#82b366;shadow=1;fontColor=#000000;" parent="c16gRC2Nv8gJjdAaMNAA-24" vertex="1">
                    <mxGeometry y="30" width="280" height="30" as="geometry"/>
                </mxCell>
                <mxCell id="c16gRC2Nv8gJjdAaMNAA-26" value="PK" style="shape=partialRectangle;overflow=hidden;connectable=0;fillColor=#d5e8d4;top=0;left=0;bottom=0;right=0;fontStyle=1;strokeColor=#82b366;shadow=1;fontColor=#000000;" parent="c16gRC2Nv8gJjdAaMNAA-25" vertex="1">
                    <mxGeometry width="30" height="30" as="geometry"/>
                </mxCell>
                <mxCell id="c16gRC2Nv8gJjdAaMNAA-27" value="id int NOT NULL auto_increment" style="shape=partialRectangle;overflow=hidden;connectable=0;fillColor=#d5e8d4;top=0;left=0;bottom=0;right=0;align=left;spacingLeft=6;fontStyle=5;strokeColor=#82b366;shadow=1;fontColor=#000000;" parent="c16gRC2Nv8gJjdAaMNAA-25" vertex="1">
                    <mxGeometry x="30" width="250" height="30" as="geometry"/>
                </mxCell>
                <mxCell id="c16gRC2Nv8gJjdAaMNAA-31" value="" style="shape=partialRectangle;collapsible=0;dropTarget=0;pointerEvents=0;fillColor=#d5e8d4;points=[[0,0.5],[1,0.5]];portConstraint=eastwest;top=0;left=0;right=0;bottom=0;strokeColor=#82b366;shadow=1;fontColor=#000000;" parent="c16gRC2Nv8gJjdAaMNAA-24" vertex="1">
                    <mxGeometry y="60" width="280" height="30" as="geometry"/>
                </mxCell>
                <mxCell id="c16gRC2Nv8gJjdAaMNAA-32" value="FK" style="shape=partialRectangle;overflow=hidden;connectable=0;fillColor=#d5e8d4;top=0;left=0;bottom=0;right=0;strokeColor=#82b366;shadow=1;fontColor=#000000;" parent="c16gRC2Nv8gJjdAaMNAA-31" vertex="1">
                    <mxGeometry width="30" height="30" as="geometry"/>
                </mxCell>
                <mxCell id="c16gRC2Nv8gJjdAaMNAA-33" value="prefectures_id int NOT NULL" style="shape=partialRectangle;overflow=hidden;connectable=0;fillColor=#d5e8d4;top=0;left=0;bottom=0;right=0;align=left;spacingLeft=6;strokeColor=#82b366;shadow=1;fontColor=#000000;" parent="c16gRC2Nv8gJjdAaMNAA-31" vertex="1">
                    <mxGeometry x="30" width="250" height="30" as="geometry"/>
                </mxCell>
                <mxCell id="c16gRC2Nv8gJjdAaMNAA-28" value="" style="shape=partialRectangle;collapsible=0;dropTarget=0;pointerEvents=0;fillColor=#d5e8d4;points=[[0,0.5],[1,0.5]];portConstraint=eastwest;top=0;left=0;right=0;bottom=0;strokeColor=#82b366;shadow=1;fontColor=#000000;" parent="c16gRC2Nv8gJjdAaMNAA-24" vertex="1">
                    <mxGeometry y="90" width="280" height="30" as="geometry"/>
                </mxCell>
                <mxCell id="c16gRC2Nv8gJjdAaMNAA-29" value="" style="shape=partialRectangle;overflow=hidden;connectable=0;fillColor=#d5e8d4;top=0;left=0;bottom=0;right=0;strokeColor=#82b366;shadow=1;fontColor=#000000;" parent="c16gRC2Nv8gJjdAaMNAA-28" vertex="1">
                    <mxGeometry width="30" height="30" as="geometry"/>
                </mxCell>
                <mxCell id="c16gRC2Nv8gJjdAaMNAA-30" value="name varchar (10) NOT NULL" style="shape=partialRectangle;overflow=hidden;connectable=0;fillColor=#d5e8d4;top=0;left=0;bottom=0;right=0;align=left;spacingLeft=6;strokeColor=#82b366;shadow=1;fontColor=#000000;" parent="c16gRC2Nv8gJjdAaMNAA-28" vertex="1">
                    <mxGeometry x="30" width="250" height="30" as="geometry"/>
                </mxCell>
                <mxCell id="c16gRC2Nv8gJjdAaMNAA-40" value="station_masters" style="shape=table;startSize=30;container=1;collapsible=1;childLayout=tableLayout;fixedRows=1;rowLines=0;fontStyle=1;align=center;resizeLast=1;fillColor=#d5e8d4;strokeColor=#6D9656;strokeWidth=2;shadow=1;fontColor=#000000;" parent="1" vertex="1">
                    <mxGeometry x="800" y="80" width="280" height="120" as="geometry"/>
                </mxCell>
                <mxCell id="c16gRC2Nv8gJjdAaMNAA-41" value="" style="shape=partialRectangle;collapsible=0;dropTarget=0;pointerEvents=0;fillColor=#d5e8d4;points=[[0,0.5],[1,0.5]];portConstraint=eastwest;top=0;left=0;right=0;bottom=1;strokeColor=#82b366;shadow=1;fontColor=#000000;" parent="c16gRC2Nv8gJjdAaMNAA-40" vertex="1">
                    <mxGeometry y="30" width="280" height="30" as="geometry"/>
                </mxCell>
                <mxCell id="c16gRC2Nv8gJjdAaMNAA-42" value="PK" style="shape=partialRectangle;overflow=hidden;connectable=0;fillColor=#d5e8d4;top=0;left=0;bottom=0;right=0;fontStyle=1;strokeColor=#82b366;shadow=1;fontColor=#000000;" parent="c16gRC2Nv8gJjdAaMNAA-41" vertex="1">
                    <mxGeometry width="30" height="30" as="geometry"/>
                </mxCell>
                <mxCell id="c16gRC2Nv8gJjdAaMNAA-43" value="id int NOT NULL auto_increment" style="shape=partialRectangle;overflow=hidden;connectable=0;fillColor=#d5e8d4;top=0;left=0;bottom=0;right=0;align=left;spacingLeft=6;fontStyle=5;strokeColor=#82b366;shadow=1;fontColor=#000000;" parent="c16gRC2Nv8gJjdAaMNAA-41" vertex="1">
                    <mxGeometry x="30" width="250" height="30" as="geometry"/>
                </mxCell>
                <mxCell id="c16gRC2Nv8gJjdAaMNAA-47" value="" style="shape=partialRectangle;collapsible=0;dropTarget=0;pointerEvents=0;fillColor=#d5e8d4;points=[[0,0.5],[1,0.5]];portConstraint=eastwest;top=0;left=0;right=0;bottom=0;strokeColor=#82b366;shadow=1;fontColor=#000000;" parent="c16gRC2Nv8gJjdAaMNAA-40" vertex="1">
                    <mxGeometry y="60" width="280" height="30" as="geometry"/>
                </mxCell>
                <mxCell id="c16gRC2Nv8gJjdAaMNAA-48" value="FK" style="shape=partialRectangle;overflow=hidden;connectable=0;fillColor=#d5e8d4;top=0;left=0;bottom=0;right=0;strokeColor=#82b366;shadow=1;fontColor=#000000;" parent="c16gRC2Nv8gJjdAaMNAA-47" vertex="1">
                    <mxGeometry width="30" height="30" as="geometry"/>
                </mxCell>
                <mxCell id="c16gRC2Nv8gJjdAaMNAA-49" value="areas_id int NOT NULL" style="shape=partialRectangle;overflow=hidden;connectable=0;fillColor=#d5e8d4;top=0;left=0;bottom=0;right=0;align=left;spacingLeft=6;strokeColor=#82b366;shadow=1;fontColor=#000000;" parent="c16gRC2Nv8gJjdAaMNAA-47" vertex="1">
                    <mxGeometry x="30" width="250" height="30" as="geometry"/>
                </mxCell>
                <mxCell id="c16gRC2Nv8gJjdAaMNAA-44" value="" style="shape=partialRectangle;collapsible=0;dropTarget=0;pointerEvents=0;fillColor=#d5e8d4;points=[[0,0.5],[1,0.5]];portConstraint=eastwest;top=0;left=0;right=0;bottom=0;strokeColor=#82b366;shadow=1;fontColor=#000000;" parent="c16gRC2Nv8gJjdAaMNAA-40" vertex="1">
                    <mxGeometry y="90" width="280" height="30" as="geometry"/>
                </mxCell>
                <mxCell id="c16gRC2Nv8gJjdAaMNAA-45" value="" style="shape=partialRectangle;overflow=hidden;connectable=0;fillColor=#d5e8d4;top=0;left=0;bottom=0;right=0;strokeColor=#82b366;shadow=1;fontColor=#000000;" parent="c16gRC2Nv8gJjdAaMNAA-44" vertex="1">
                    <mxGeometry width="30" height="30" as="geometry"/>
                </mxCell>
                <mxCell id="c16gRC2Nv8gJjdAaMNAA-46" value="name varchar (10) NOT NULL" style="shape=partialRectangle;overflow=hidden;connectable=0;fillColor=#d5e8d4;top=0;left=0;bottom=0;right=0;align=left;spacingLeft=6;strokeColor=#82b366;shadow=1;fontColor=#000000;" parent="c16gRC2Nv8gJjdAaMNAA-44" vertex="1">
                    <mxGeometry x="30" width="250" height="30" as="geometry"/>
                </mxCell>
                <mxCell id="c16gRC2Nv8gJjdAaMNAA-56" value="genre_masters" style="shape=table;startSize=30;container=1;collapsible=1;childLayout=tableLayout;fixedRows=1;rowLines=0;fontStyle=1;align=center;resizeLast=1;fillColor=#d5e8d4;strokeColor=#6D9656;strokeWidth=2;shadow=1;fontColor=#000000;" parent="1" vertex="1">
                    <mxGeometry x="440" y="240" width="280" height="90" as="geometry"/>
                </mxCell>
                <mxCell id="c16gRC2Nv8gJjdAaMNAA-57" value="" style="shape=partialRectangle;collapsible=0;dropTarget=0;pointerEvents=0;fillColor=#d5e8d4;points=[[0,0.5],[1,0.5]];portConstraint=eastwest;top=0;left=0;right=0;bottom=1;strokeColor=#82b366;shadow=1;fontColor=#000000;" parent="c16gRC2Nv8gJjdAaMNAA-56" vertex="1">
                    <mxGeometry y="30" width="280" height="30" as="geometry"/>
                </mxCell>
                <mxCell id="c16gRC2Nv8gJjdAaMNAA-58" value="PK" style="shape=partialRectangle;overflow=hidden;connectable=0;fillColor=#d5e8d4;top=0;left=0;bottom=0;right=0;fontStyle=1;strokeColor=#82b366;shadow=1;fontColor=#000000;" parent="c16gRC2Nv8gJjdAaMNAA-57" vertex="1">
                    <mxGeometry width="30" height="30" as="geometry"/>
                </mxCell>
                <mxCell id="c16gRC2Nv8gJjdAaMNAA-59" value="id int NOT NULL auto_increment" style="shape=partialRectangle;overflow=hidden;connectable=0;fillColor=#d5e8d4;top=0;left=0;bottom=0;right=0;align=left;spacingLeft=6;fontStyle=5;strokeColor=#82b366;shadow=1;fontColor=#000000;" parent="c16gRC2Nv8gJjdAaMNAA-57" vertex="1">
                    <mxGeometry x="30" width="250" height="30" as="geometry"/>
                </mxCell>
                <mxCell id="c16gRC2Nv8gJjdAaMNAA-60" value="" style="shape=partialRectangle;collapsible=0;dropTarget=0;pointerEvents=0;fillColor=#d5e8d4;points=[[0,0.5],[1,0.5]];portConstraint=eastwest;top=0;left=0;right=0;bottom=0;strokeColor=#82b366;shadow=1;fontColor=#000000;" parent="c16gRC2Nv8gJjdAaMNAA-56" vertex="1">
                    <mxGeometry y="60" width="280" height="30" as="geometry"/>
                </mxCell>
                <mxCell id="c16gRC2Nv8gJjdAaMNAA-61" value="" style="shape=partialRectangle;overflow=hidden;connectable=0;fillColor=#d5e8d4;top=0;left=0;bottom=0;right=0;strokeColor=#82b366;shadow=1;fontColor=#000000;" parent="c16gRC2Nv8gJjdAaMNAA-60" vertex="1">
                    <mxGeometry width="30" height="30" as="geometry"/>
                </mxCell>
                <mxCell id="c16gRC2Nv8gJjdAaMNAA-62" value="name varchar (10) NOT NULL" style="shape=partialRectangle;overflow=hidden;connectable=0;fillColor=#d5e8d4;top=0;left=0;bottom=0;right=0;align=left;spacingLeft=6;strokeColor=#82b366;shadow=1;fontColor=#000000;" parent="c16gRC2Nv8gJjdAaMNAA-60" vertex="1">
                    <mxGeometry x="30" width="250" height="30" as="geometry"/>
                </mxCell>
                <mxCell id="c16gRC2Nv8gJjdAaMNAA-72" value="budget_masters" style="shape=table;startSize=30;container=1;collapsible=1;childLayout=tableLayout;fixedRows=1;rowLines=0;fontStyle=1;align=center;resizeLast=1;fillColor=#d5e8d4;strokeColor=#6D9656;strokeWidth=2;shadow=1;fontColor=#000000;" parent="1" vertex="1">
                    <mxGeometry x="800" y="240" width="280" height="120" as="geometry"/>
                </mxCell>
                <mxCell id="c16gRC2Nv8gJjdAaMNAA-73" value="" style="shape=partialRectangle;collapsible=0;dropTarget=0;pointerEvents=0;fillColor=#d5e8d4;points=[[0,0.5],[1,0.5]];portConstraint=eastwest;top=0;left=0;right=0;bottom=1;strokeColor=#82b366;shadow=1;fontColor=#000000;" parent="c16gRC2Nv8gJjdAaMNAA-72" vertex="1">
                    <mxGeometry y="30" width="280" height="30" as="geometry"/>
                </mxCell>
                <mxCell id="c16gRC2Nv8gJjdAaMNAA-74" value="PK" style="shape=partialRectangle;overflow=hidden;connectable=0;fillColor=#d5e8d4;top=0;left=0;bottom=0;right=0;fontStyle=1;strokeColor=#82b366;shadow=1;fontColor=#000000;" parent="c16gRC2Nv8gJjdAaMNAA-73" vertex="1">
                    <mxGeometry width="30" height="30" as="geometry"/>
                </mxCell>
                <mxCell id="c16gRC2Nv8gJjdAaMNAA-75" value="id int NOT NULL auto_increment" style="shape=partialRectangle;overflow=hidden;connectable=0;fillColor=#d5e8d4;top=0;left=0;bottom=0;right=0;align=left;spacingLeft=6;fontStyle=5;strokeColor=#82b366;shadow=1;fontColor=#000000;" parent="c16gRC2Nv8gJjdAaMNAA-73" vertex="1">
                    <mxGeometry x="30" width="250" height="30" as="geometry"/>
                </mxCell>
                <mxCell id="c16gRC2Nv8gJjdAaMNAA-76" value="" style="shape=partialRectangle;collapsible=0;dropTarget=0;pointerEvents=0;fillColor=#d5e8d4;points=[[0,0.5],[1,0.5]];portConstraint=eastwest;top=0;left=0;right=0;bottom=0;strokeColor=#82b366;shadow=1;fontColor=#000000;" parent="c16gRC2Nv8gJjdAaMNAA-72" vertex="1">
                    <mxGeometry y="60" width="280" height="30" as="geometry"/>
                </mxCell>
                <mxCell id="c16gRC2Nv8gJjdAaMNAA-77" value="" style="shape=partialRectangle;overflow=hidden;connectable=0;fillColor=#d5e8d4;top=0;left=0;bottom=0;right=0;strokeColor=#82b366;shadow=1;fontColor=#000000;" parent="c16gRC2Nv8gJjdAaMNAA-76" vertex="1">
                    <mxGeometry width="30" height="30" as="geometry"/>
                </mxCell>
                <mxCell id="c16gRC2Nv8gJjdAaMNAA-78" value="lower_limit int NOT NULL" style="shape=partialRectangle;overflow=hidden;connectable=0;fillColor=#d5e8d4;top=0;left=0;bottom=0;right=0;align=left;spacingLeft=6;strokeColor=#82b366;shadow=1;fontColor=#000000;" parent="c16gRC2Nv8gJjdAaMNAA-76" vertex="1">
                    <mxGeometry x="30" width="250" height="30" as="geometry"/>
                </mxCell>
                <mxCell id="5" value="" style="shape=partialRectangle;collapsible=0;dropTarget=0;pointerEvents=0;fillColor=#d5e8d4;points=[[0,0.5],[1,0.5]];portConstraint=eastwest;top=0;left=0;right=0;bottom=0;strokeColor=#82b366;shadow=1;fontColor=#000000;" parent="c16gRC2Nv8gJjdAaMNAA-72" vertex="1">
                    <mxGeometry y="90" width="280" height="30" as="geometry"/>
                </mxCell>
                <mxCell id="6" value="" style="shape=partialRectangle;overflow=hidden;connectable=0;fillColor=#d5e8d4;top=0;left=0;bottom=0;right=0;strokeColor=#82b366;shadow=1;fontColor=#000000;" parent="5" vertex="1">
                    <mxGeometry width="30" height="30" as="geometry"/>
                </mxCell>
                <mxCell id="7" value="upper_limit int NOT NULL" style="shape=partialRectangle;overflow=hidden;connectable=0;fillColor=#d5e8d4;top=0;left=0;bottom=0;right=0;align=left;spacingLeft=6;strokeColor=#82b366;shadow=1;fontColor=#000000;" parent="5" vertex="1">
                    <mxGeometry x="30" width="250" height="30" as="geometry"/>
                </mxCell>
                <mxCell id="EuhSBXG35wCDt_b5zXix-2" value="user_info" style="shape=table;startSize=30;container=1;collapsible=1;childLayout=tableLayout;fixedRows=1;rowLines=0;fontStyle=1;align=center;resizeLast=1;fillColor=#fff2cc;strokeWidth=2;strokeColor=#A18941;shadow=1;fontColor=#000000;" parent="1" vertex="1">
                    <mxGeometry x="440" y="1160" width="280" height="210" as="geometry"/>
                </mxCell>
                <mxCell id="EuhSBXG35wCDt_b5zXix-3" value="" style="shape=partialRectangle;collapsible=0;dropTarget=0;pointerEvents=0;fillColor=#fff2cc;points=[[0,0.5],[1,0.5]];portConstraint=eastwest;top=0;left=0;right=0;bottom=1;strokeColor=#d6b656;fontColor=#000000;" parent="EuhSBXG35wCDt_b5zXix-2" vertex="1">
                    <mxGeometry y="30" width="280" height="30" as="geometry"/>
                </mxCell>
                <mxCell id="EuhSBXG35wCDt_b5zXix-4" value="PK" style="shape=partialRectangle;overflow=hidden;connectable=0;fillColor=#fff2cc;top=0;left=0;bottom=0;right=0;fontStyle=1;strokeColor=#d6b656;fontColor=#000000;" parent="EuhSBXG35wCDt_b5zXix-3" vertex="1">
                    <mxGeometry width="30" height="30" as="geometry"/>
                </mxCell>
                <mxCell id="EuhSBXG35wCDt_b5zXix-5" value="id int NOT NULL auto_increment" style="shape=partialRectangle;overflow=hidden;connectable=0;fillColor=#fff2cc;top=0;left=0;bottom=0;right=0;align=left;spacingLeft=6;fontStyle=5;strokeColor=#d6b656;fontColor=#000000;" parent="EuhSBXG35wCDt_b5zXix-3" vertex="1">
                    <mxGeometry x="30" width="250" height="30" as="geometry"/>
                </mxCell>
                <mxCell id="EuhSBXG35wCDt_b5zXix-30" value="" style="shape=partialRectangle;collapsible=0;dropTarget=0;pointerEvents=0;fillColor=#fff2cc;points=[[0,0.5],[1,0.5]];portConstraint=eastwest;top=0;left=0;right=0;bottom=0;strokeColor=#d6b656;fontColor=#000000;" parent="EuhSBXG35wCDt_b5zXix-2" vertex="1">
                    <mxGeometry y="60" width="280" height="30" as="geometry"/>
                </mxCell>
                <mxCell id="EuhSBXG35wCDt_b5zXix-31" value="FK" style="shape=partialRectangle;overflow=hidden;connectable=0;fillColor=#fff2cc;top=0;left=0;bottom=0;right=0;strokeColor=#d6b656;fontColor=#000000;" parent="EuhSBXG35wCDt_b5zXix-30" vertex="1">
                    <mxGeometry width="30" height="30" as="geometry"/>
                </mxCell>
                <mxCell id="EuhSBXG35wCDt_b5zXix-32" value="user_account_id int NOT NULL" style="shape=partialRectangle;overflow=hidden;connectable=0;fillColor=#fff2cc;top=0;left=0;bottom=0;right=0;align=left;spacingLeft=6;strokeColor=#d6b656;fontColor=#000000;" parent="EuhSBXG35wCDt_b5zXix-30" vertex="1">
                    <mxGeometry x="30" width="250" height="30" as="geometry"/>
                </mxCell>
                <mxCell id="EuhSBXG35wCDt_b5zXix-6" value="" style="shape=partialRectangle;collapsible=0;dropTarget=0;pointerEvents=0;fillColor=#fff2cc;points=[[0,0.5],[1,0.5]];portConstraint=eastwest;top=0;left=0;right=0;bottom=0;strokeColor=#d6b656;fontColor=#000000;" parent="EuhSBXG35wCDt_b5zXix-2" vertex="1">
                    <mxGeometry y="90" width="280" height="30" as="geometry"/>
                </mxCell>
                <mxCell id="EuhSBXG35wCDt_b5zXix-7" value="" style="shape=partialRectangle;overflow=hidden;connectable=0;fillColor=#fff2cc;top=0;left=0;bottom=0;right=0;strokeColor=#d6b656;fontColor=#000000;" parent="EuhSBXG35wCDt_b5zXix-6" vertex="1">
                    <mxGeometry width="30" height="30" as="geometry"/>
                </mxCell>
                <mxCell id="EuhSBXG35wCDt_b5zXix-8" value="name varchar(100) NOT NULL" style="shape=partialRectangle;overflow=hidden;connectable=0;fillColor=#fff2cc;top=0;left=0;bottom=0;right=0;align=left;spacingLeft=6;strokeColor=#d6b656;fontColor=#000000;" parent="EuhSBXG35wCDt_b5zXix-6" vertex="1">
                    <mxGeometry x="30" width="250" height="30" as="geometry"/>
                </mxCell>
                <mxCell id="EuhSBXG35wCDt_b5zXix-27" value="" style="shape=partialRectangle;collapsible=0;dropTarget=0;pointerEvents=0;fillColor=#fff2cc;points=[[0,0.5],[1,0.5]];portConstraint=eastwest;top=0;left=0;right=0;bottom=0;strokeColor=#d6b656;fontColor=#000000;" parent="EuhSBXG35wCDt_b5zXix-2" vertex="1">
                    <mxGeometry y="120" width="280" height="30" as="geometry"/>
                </mxCell>
                <mxCell id="EuhSBXG35wCDt_b5zXix-28" value="FK" style="shape=partialRectangle;overflow=hidden;connectable=0;fillColor=#fff2cc;top=0;left=0;bottom=0;right=0;strokeColor=#d6b656;fontColor=#000000;" parent="EuhSBXG35wCDt_b5zXix-27" vertex="1">
                    <mxGeometry width="30" height="30" as="geometry"/>
                </mxCell>
                <mxCell id="EuhSBXG35wCDt_b5zXix-29" value="prefecture_id varchar(50) NOT NULL" style="shape=partialRectangle;overflow=hidden;connectable=0;fillColor=#fff2cc;top=0;left=0;bottom=0;right=0;align=left;spacingLeft=6;strokeColor=#d6b656;fontColor=#000000;" parent="EuhSBXG35wCDt_b5zXix-27" vertex="1">
                    <mxGeometry x="30" width="250" height="30" as="geometry"/>
                </mxCell>
                <mxCell id="EuhSBXG35wCDt_b5zXix-21" value="" style="shape=partialRectangle;collapsible=0;dropTarget=0;pointerEvents=0;fillColor=#fff2cc;points=[[0,0.5],[1,0.5]];portConstraint=eastwest;top=0;left=0;right=0;bottom=0;strokeColor=#d6b656;fontColor=#000000;" parent="EuhSBXG35wCDt_b5zXix-2" vertex="1">
                    <mxGeometry y="150" width="280" height="30" as="geometry"/>
                </mxCell>
                <mxCell id="EuhSBXG35wCDt_b5zXix-22" value="" style="shape=partialRectangle;overflow=hidden;connectable=0;fillColor=#fff2cc;top=0;left=0;bottom=0;right=0;strokeColor=#d6b656;fontColor=#000000;" parent="EuhSBXG35wCDt_b5zXix-21" vertex="1">
                    <mxGeometry width="30" height="30" as="geometry"/>
                </mxCell>
                <mxCell id="EuhSBXG35wCDt_b5zXix-23" value="created_at datetime NOT NULL" style="shape=partialRectangle;overflow=hidden;connectable=0;fillColor=#fff2cc;top=0;left=0;bottom=0;right=0;align=left;spacingLeft=6;strokeColor=#d6b656;fontColor=#000000;" parent="EuhSBXG35wCDt_b5zXix-21" vertex="1">
                    <mxGeometry x="30" width="250" height="30" as="geometry"/>
                </mxCell>
                <mxCell id="EuhSBXG35wCDt_b5zXix-24" value="" style="shape=partialRectangle;collapsible=0;dropTarget=0;pointerEvents=0;fillColor=#fff2cc;points=[[0,0.5],[1,0.5]];portConstraint=eastwest;top=0;left=0;right=0;bottom=0;strokeColor=#d6b656;fontColor=#000000;" parent="EuhSBXG35wCDt_b5zXix-2" vertex="1">
                    <mxGeometry y="180" width="280" height="30" as="geometry"/>
                </mxCell>
                <mxCell id="EuhSBXG35wCDt_b5zXix-25" value="" style="shape=partialRectangle;overflow=hidden;connectable=0;fillColor=#fff2cc;top=0;left=0;bottom=0;right=0;strokeColor=#d6b656;fontColor=#000000;" parent="EuhSBXG35wCDt_b5zXix-24" vertex="1">
                    <mxGeometry width="30" height="30" as="geometry"/>
                </mxCell>
                <mxCell id="EuhSBXG35wCDt_b5zXix-26" value="updated_at datetime NOT NULL" style="shape=partialRectangle;overflow=hidden;connectable=0;fillColor=#fff2cc;top=0;left=0;bottom=0;right=0;align=left;spacingLeft=6;strokeColor=#d6b656;fontColor=#000000;" parent="EuhSBXG35wCDt_b5zXix-24" vertex="1">
                    <mxGeometry x="30" width="250" height="30" as="geometry"/>
                </mxCell>
                <mxCell id="EuhSBXG35wCDt_b5zXix-35" style="edgeStyle=orthogonalEdgeStyle;orthogonalLoop=1;jettySize=auto;html=1;exitX=1;exitY=0.5;exitDx=0;exitDy=0;entryX=0;entryY=0.5;entryDx=0;entryDy=0;startArrow=ERone;startFill=0;endArrow=ERone;endFill=0;fillColor=#dae8fc;strokeColor=#6c8ebf;fontColor=#000000;" parent="1" source="W4QZJKFdE8w0vbNsm4zM-71" target="lYWtgUgMndmY4nlNP9k3-1" edge="1">
                    <mxGeometry relative="1" as="geometry"/>
                </mxCell>
                <mxCell id="EuhSBXG35wCDt_b5zXix-36" style="edgeStyle=orthogonalEdgeStyle;orthogonalLoop=1;jettySize=auto;html=1;exitX=1;exitY=0.5;exitDx=0;exitDy=0;entryX=0;entryY=0.5;entryDx=0;entryDy=0;startArrow=ERone;startFill=0;endArrow=ERone;endFill=0;fillColor=#fff2cc;strokeColor=#d6b656;fontColor=#000000;" parent="1" source="C-vyLk0tnHw3VtMMgP7b-24" target="EuhSBXG35wCDt_b5zXix-30" edge="1">
                    <mxGeometry relative="1" as="geometry"/>
                </mxCell>
                <mxCell id="EuhSBXG35wCDt_b5zXix-37" style="edgeStyle=orthogonalEdgeStyle;orthogonalLoop=1;jettySize=auto;html=1;exitX=1;exitY=0.5;exitDx=0;exitDy=0;entryX=0;entryY=0.5;entryDx=0;entryDy=0;startArrow=ERone;startFill=0;endArrow=ERzeroToMany;endFill=1;fillColor=#d5e8d4;strokeColor=#82b366;shadow=1;fontColor=#000000;" parent="1" source="c16gRC2Nv8gJjdAaMNAA-8" target="c16gRC2Nv8gJjdAaMNAA-31" edge="1">
                    <mxGeometry relative="1" as="geometry"/>
                </mxCell>
                <mxCell id="EuhSBXG35wCDt_b5zXix-38" style="edgeStyle=orthogonalEdgeStyle;orthogonalLoop=1;jettySize=auto;html=1;exitX=1;exitY=0.5;exitDx=0;exitDy=0;entryX=0;entryY=0.5;entryDx=0;entryDy=0;startArrow=ERone;startFill=0;endArrow=ERzeroToMany;endFill=1;fillColor=#d5e8d4;strokeColor=#82b366;shadow=1;fontColor=#000000;" parent="1" source="c16gRC2Nv8gJjdAaMNAA-25" target="c16gRC2Nv8gJjdAaMNAA-47" edge="1">
                    <mxGeometry relative="1" as="geometry"/>
                </mxCell>
                <mxCell id="EuhSBXG35wCDt_b5zXix-52" value="menus" style="shape=table;startSize=30;container=1;collapsible=1;childLayout=tableLayout;fixedRows=1;rowLines=0;fontStyle=1;align=center;resizeLast=1;strokeWidth=2;shadow=1;fillColor=#DAE8FC;fontColor=#000000;strokeColor=#4C6487;" parent="1" vertex="1">
                    <mxGeometry x="830" y="840" width="280" height="240" as="geometry"/>
                </mxCell>
                <mxCell id="EuhSBXG35wCDt_b5zXix-53" value="" style="shape=partialRectangle;collapsible=0;dropTarget=0;pointerEvents=0;points=[[0,0.5],[1,0.5]];portConstraint=eastwest;top=0;left=0;right=0;bottom=1;strokeColor=#0e8088;fillColor=#DAE8FC;fontColor=#000000;" parent="EuhSBXG35wCDt_b5zXix-52" vertex="1">
                    <mxGeometry y="30" width="280" height="30" as="geometry"/>
                </mxCell>
                <mxCell id="EuhSBXG35wCDt_b5zXix-54" value="PK" style="shape=partialRectangle;overflow=hidden;connectable=0;top=0;left=0;bottom=0;right=0;fontStyle=1;strokeColor=#0e8088;fillColor=#DAE8FC;fontColor=#000000;" parent="EuhSBXG35wCDt_b5zXix-53" vertex="1">
                    <mxGeometry width="30" height="30" as="geometry"/>
                </mxCell>
                <mxCell id="EuhSBXG35wCDt_b5zXix-55" value="id int NOT NULL auto_increment" style="shape=partialRectangle;overflow=hidden;connectable=0;top=0;left=0;bottom=0;right=0;align=left;spacingLeft=6;fontStyle=5;strokeColor=#0e8088;fillColor=#DAE8FC;fontColor=#000000;" parent="EuhSBXG35wCDt_b5zXix-53" vertex="1">
                    <mxGeometry x="30" width="250" height="30" as="geometry"/>
                </mxCell>
                <mxCell id="EuhSBXG35wCDt_b5zXix-56" value="" style="shape=partialRectangle;collapsible=0;dropTarget=0;pointerEvents=0;points=[[0,0.5],[1,0.5]];portConstraint=eastwest;top=0;left=0;right=0;bottom=0;strokeColor=#0e8088;fillColor=#DAE8FC;fontColor=#000000;" parent="EuhSBXG35wCDt_b5zXix-52" vertex="1">
                    <mxGeometry y="60" width="280" height="30" as="geometry"/>
                </mxCell>
                <mxCell id="EuhSBXG35wCDt_b5zXix-57" value="FK" style="shape=partialRectangle;overflow=hidden;connectable=0;top=0;left=0;bottom=0;right=0;strokeColor=#0e8088;fillColor=#DAE8FC;fontColor=#000000;" parent="EuhSBXG35wCDt_b5zXix-56" vertex="1">
                    <mxGeometry width="30" height="30" as="geometry"/>
                </mxCell>
                <mxCell id="EuhSBXG35wCDt_b5zXix-58" value="shop_id int NOT NULL" style="shape=partialRectangle;overflow=hidden;connectable=0;top=0;left=0;bottom=0;right=0;align=left;spacingLeft=6;strokeColor=#0e8088;fillColor=#DAE8FC;fontColor=#000000;" parent="EuhSBXG35wCDt_b5zXix-56" vertex="1">
                    <mxGeometry x="30" width="250" height="30" as="geometry"/>
                </mxCell>
                <mxCell id="EuhSBXG35wCDt_b5zXix-62" value="" style="shape=partialRectangle;collapsible=0;dropTarget=0;pointerEvents=0;points=[[0,0.5],[1,0.5]];portConstraint=eastwest;top=0;left=0;right=0;bottom=0;strokeColor=#0e8088;fillColor=#DAE8FC;fontColor=#000000;" parent="EuhSBXG35wCDt_b5zXix-52" vertex="1">
                    <mxGeometry y="90" width="280" height="30" as="geometry"/>
                </mxCell>
                <mxCell id="EuhSBXG35wCDt_b5zXix-63" value="" style="shape=partialRectangle;overflow=hidden;connectable=0;top=0;left=0;bottom=0;right=0;strokeColor=#0e8088;fillColor=#DAE8FC;fontColor=#000000;" parent="EuhSBXG35wCDt_b5zXix-62" vertex="1">
                    <mxGeometry width="30" height="30" as="geometry"/>
                </mxCell>
                <mxCell id="EuhSBXG35wCDt_b5zXix-64" value="name varchar(100) NOT NULL" style="shape=partialRectangle;overflow=hidden;connectable=0;top=0;left=0;bottom=0;right=0;align=left;spacingLeft=6;strokeColor=#0e8088;fillColor=#DAE8FC;fontColor=#000000;" parent="EuhSBXG35wCDt_b5zXix-62" vertex="1">
                    <mxGeometry x="30" width="250" height="30" as="geometry"/>
                </mxCell>
                <mxCell id="EuhSBXG35wCDt_b5zXix-65" value="" style="shape=partialRectangle;collapsible=0;dropTarget=0;pointerEvents=0;points=[[0,0.5],[1,0.5]];portConstraint=eastwest;top=0;left=0;right=0;bottom=0;strokeColor=#0e8088;fillColor=#DAE8FC;fontColor=#000000;" parent="EuhSBXG35wCDt_b5zXix-52" vertex="1">
                    <mxGeometry y="120" width="280" height="30" as="geometry"/>
                </mxCell>
                <mxCell id="EuhSBXG35wCDt_b5zXix-66" value="" style="shape=partialRectangle;overflow=hidden;connectable=0;top=0;left=0;bottom=0;right=0;strokeColor=#0e8088;fillColor=#DAE8FC;fontColor=#000000;" parent="EuhSBXG35wCDt_b5zXix-65" vertex="1">
                    <mxGeometry width="30" height="30" as="geometry"/>
                </mxCell>
                <mxCell id="EuhSBXG35wCDt_b5zXix-67" value="genre_id varchar(50) NOT NULL" style="shape=partialRectangle;overflow=hidden;connectable=0;top=0;left=0;bottom=0;right=0;align=left;spacingLeft=6;strokeColor=#0e8088;fillColor=#DAE8FC;fontColor=#000000;" parent="EuhSBXG35wCDt_b5zXix-65" vertex="1">
                    <mxGeometry x="30" width="250" height="30" as="geometry"/>
                </mxCell>
                <mxCell id="EuhSBXG35wCDt_b5zXix-71" value="" style="shape=partialRectangle;collapsible=0;dropTarget=0;pointerEvents=0;points=[[0,0.5],[1,0.5]];portConstraint=eastwest;top=0;left=0;right=0;bottom=0;strokeColor=#0e8088;fillColor=#DAE8FC;fontColor=#000000;" parent="EuhSBXG35wCDt_b5zXix-52" vertex="1">
                    <mxGeometry y="150" width="280" height="30" as="geometry"/>
                </mxCell>
                <mxCell id="EuhSBXG35wCDt_b5zXix-72" value="" style="shape=partialRectangle;overflow=hidden;connectable=0;top=0;left=0;bottom=0;right=0;strokeColor=#0e8088;fillColor=#DAE8FC;fontColor=#000000;" parent="EuhSBXG35wCDt_b5zXix-71" vertex="1">
                    <mxGeometry width="30" height="30" as="geometry"/>
                </mxCell>
                <mxCell id="EuhSBXG35wCDt_b5zXix-73" value="price int NOT NULL" style="shape=partialRectangle;overflow=hidden;connectable=0;top=0;left=0;bottom=0;right=0;align=left;spacingLeft=6;strokeColor=#0e8088;fillColor=#DAE8FC;fontColor=#000000;" parent="EuhSBXG35wCDt_b5zXix-71" vertex="1">
                    <mxGeometry x="30" width="250" height="30" as="geometry"/>
                </mxCell>
                <mxCell id="EuhSBXG35wCDt_b5zXix-83" value="" style="shape=partialRectangle;collapsible=0;dropTarget=0;pointerEvents=0;points=[[0,0.5],[1,0.5]];portConstraint=eastwest;top=0;left=0;right=0;bottom=0;strokeColor=#0e8088;fillColor=#DAE8FC;fontColor=#000000;" parent="EuhSBXG35wCDt_b5zXix-52" vertex="1">
                    <mxGeometry y="180" width="280" height="30" as="geometry"/>
                </mxCell>
                <mxCell id="EuhSBXG35wCDt_b5zXix-84" value="" style="shape=partialRectangle;overflow=hidden;connectable=0;top=0;left=0;bottom=0;right=0;strokeColor=#0e8088;fillColor=#DAE8FC;fontColor=#000000;" parent="EuhSBXG35wCDt_b5zXix-83" vertex="1">
                    <mxGeometry width="30" height="30" as="geometry"/>
                </mxCell>
                <mxCell id="EuhSBXG35wCDt_b5zXix-85" value="created_at datetime NOT NULL" style="shape=partialRectangle;overflow=hidden;connectable=0;top=0;left=0;bottom=0;right=0;align=left;spacingLeft=6;strokeColor=#0e8088;fillColor=#DAE8FC;fontColor=#000000;" parent="EuhSBXG35wCDt_b5zXix-83" vertex="1">
                    <mxGeometry x="30" width="250" height="30" as="geometry"/>
                </mxCell>
                <mxCell id="EuhSBXG35wCDt_b5zXix-86" value="" style="shape=partialRectangle;collapsible=0;dropTarget=0;pointerEvents=0;points=[[0,0.5],[1,0.5]];portConstraint=eastwest;top=0;left=0;right=0;bottom=0;strokeColor=#0e8088;fillColor=#DAE8FC;fontColor=#000000;" parent="EuhSBXG35wCDt_b5zXix-52" vertex="1">
                    <mxGeometry y="210" width="280" height="30" as="geometry"/>
                </mxCell>
                <mxCell id="EuhSBXG35wCDt_b5zXix-87" value="" style="shape=partialRectangle;overflow=hidden;connectable=0;top=0;left=0;bottom=0;right=0;strokeColor=#0e8088;fillColor=#DAE8FC;fontColor=#000000;" parent="EuhSBXG35wCDt_b5zXix-86" vertex="1">
                    <mxGeometry width="30" height="30" as="geometry"/>
                </mxCell>
                <mxCell id="EuhSBXG35wCDt_b5zXix-88" value="updated_at datetime NOT NULL" style="shape=partialRectangle;overflow=hidden;connectable=0;top=0;left=0;bottom=0;right=0;align=left;spacingLeft=6;strokeColor=#0e8088;fillColor=#DAE8FC;fontColor=#000000;" parent="EuhSBXG35wCDt_b5zXix-86" vertex="1">
                    <mxGeometry x="30" width="250" height="30" as="geometry"/>
                </mxCell>
                <mxCell id="EuhSBXG35wCDt_b5zXix-97" style="edgeStyle=orthogonalEdgeStyle;rounded=1;orthogonalLoop=1;jettySize=auto;html=1;exitX=1;exitY=0.5;exitDx=0;exitDy=0;entryX=0;entryY=0.5;entryDx=0;entryDy=0;shadow=0;startArrow=ERone;startFill=0;endArrow=ERzeroToMany;endFill=1;strokeColor=#6C8EBF;strokeWidth=1;fontColor=#000000;" parent="1" source="EuhSBXG35wCDt_b5zXix-53" target="W4QZJKFdE8w0vbNsm4zM-105" edge="1">
                    <mxGeometry relative="1" as="geometry"/>
                </mxCell>
                <mxCell id="EuhSBXG35wCDt_b5zXix-98" value="user_photos" style="shape=table;startSize=30;container=1;collapsible=1;childLayout=tableLayout;fixedRows=1;rowLines=0;fontStyle=1;align=center;resizeLast=1;strokeWidth=2;shadow=1;fillColor=#FFF2CC;fontColor=#000000;strokeColor=#A18941;" parent="1" vertex="1">
                    <mxGeometry x="440" y="1480" width="280" height="240" as="geometry"/>
                </mxCell>
                <mxCell id="EuhSBXG35wCDt_b5zXix-99" value="" style="shape=partialRectangle;collapsible=0;dropTarget=0;pointerEvents=0;points=[[0,0.5],[1,0.5]];portConstraint=eastwest;top=0;left=0;right=0;bottom=1;strokeColor=#0e8088;fillColor=#FFF2CC;fontColor=#000000;" parent="EuhSBXG35wCDt_b5zXix-98" vertex="1">
                    <mxGeometry y="30" width="280" height="30" as="geometry"/>
                </mxCell>
                <mxCell id="EuhSBXG35wCDt_b5zXix-100" value="PK" style="shape=partialRectangle;overflow=hidden;connectable=0;top=0;left=0;bottom=0;right=0;fontStyle=1;strokeColor=#0e8088;fillColor=#FFF2CC;fontColor=#000000;" parent="EuhSBXG35wCDt_b5zXix-99" vertex="1">
                    <mxGeometry width="30" height="30" as="geometry"/>
                </mxCell>
                <mxCell id="EuhSBXG35wCDt_b5zXix-101" value="id int NOT NULL auto_increment" style="shape=partialRectangle;overflow=hidden;connectable=0;top=0;left=0;bottom=0;right=0;align=left;spacingLeft=6;fontStyle=5;strokeColor=#0e8088;fillColor=#FFF2CC;fontColor=#000000;" parent="EuhSBXG35wCDt_b5zXix-99" vertex="1">
                    <mxGeometry x="30" width="250" height="30" as="geometry"/>
                </mxCell>
                <mxCell id="EuhSBXG35wCDt_b5zXix-102" value="" style="shape=partialRectangle;collapsible=0;dropTarget=0;pointerEvents=0;points=[[0,0.5],[1,0.5]];portConstraint=eastwest;top=0;left=0;right=0;bottom=0;strokeColor=#0e8088;fillColor=#FFF2CC;fontColor=#000000;" parent="EuhSBXG35wCDt_b5zXix-98" vertex="1">
                    <mxGeometry y="60" width="280" height="30" as="geometry"/>
                </mxCell>
                <mxCell id="EuhSBXG35wCDt_b5zXix-103" value="FK" style="shape=partialRectangle;overflow=hidden;connectable=0;top=0;left=0;bottom=0;right=0;strokeColor=#0e8088;fillColor=#FFF2CC;fontColor=#000000;" parent="EuhSBXG35wCDt_b5zXix-102" vertex="1">
                    <mxGeometry width="30" height="30" as="geometry"/>
                </mxCell>
                <mxCell id="EuhSBXG35wCDt_b5zXix-104" value="user_id int NOT NULL" style="shape=partialRectangle;overflow=hidden;connectable=0;top=0;left=0;bottom=0;right=0;align=left;spacingLeft=6;strokeColor=#0e8088;fillColor=#FFF2CC;fontColor=#000000;" parent="EuhSBXG35wCDt_b5zXix-102" vertex="1">
                    <mxGeometry x="30" width="250" height="30" as="geometry"/>
                </mxCell>
                <mxCell id="EuhSBXG35wCDt_b5zXix-120" value="" style="shape=partialRectangle;collapsible=0;dropTarget=0;pointerEvents=0;points=[[0,0.5],[1,0.5]];portConstraint=eastwest;top=0;left=0;right=0;bottom=0;strokeColor=#0e8088;fillColor=#FFF2CC;fontColor=#000000;" parent="EuhSBXG35wCDt_b5zXix-98" vertex="1">
                    <mxGeometry y="90" width="280" height="30" as="geometry"/>
                </mxCell>
                <mxCell id="EuhSBXG35wCDt_b5zXix-121" value="FK" style="shape=partialRectangle;overflow=hidden;connectable=0;top=0;left=0;bottom=0;right=0;strokeColor=#0e8088;fillColor=#FFF2CC;fontColor=#000000;" parent="EuhSBXG35wCDt_b5zXix-120" vertex="1">
                    <mxGeometry width="30" height="30" as="geometry"/>
                </mxCell>
                <mxCell id="EuhSBXG35wCDt_b5zXix-122" value="menu_id int NOT NULL" style="shape=partialRectangle;overflow=hidden;connectable=0;top=0;left=0;bottom=0;right=0;align=left;spacingLeft=6;strokeColor=#0e8088;fillColor=#FFF2CC;fontColor=#000000;" parent="EuhSBXG35wCDt_b5zXix-120" vertex="1">
                    <mxGeometry x="30" width="250" height="30" as="geometry"/>
                </mxCell>
                <mxCell id="EuhSBXG35wCDt_b5zXix-105" value="" style="shape=partialRectangle;collapsible=0;dropTarget=0;pointerEvents=0;points=[[0,0.5],[1,0.5]];portConstraint=eastwest;top=0;left=0;right=0;bottom=0;strokeColor=#0e8088;fillColor=#FFF2CC;fontColor=#000000;" parent="EuhSBXG35wCDt_b5zXix-98" vertex="1">
                    <mxGeometry y="120" width="280" height="30" as="geometry"/>
                </mxCell>
                <mxCell id="EuhSBXG35wCDt_b5zXix-106" value="" style="shape=partialRectangle;overflow=hidden;connectable=0;top=0;left=0;bottom=0;right=0;strokeColor=#0e8088;fillColor=#FFF2CC;fontColor=#000000;" parent="EuhSBXG35wCDt_b5zXix-105" vertex="1">
                    <mxGeometry width="30" height="30" as="geometry"/>
                </mxCell>
                <mxCell id="EuhSBXG35wCDt_b5zXix-107" value="name varchar(100) NOT NULL" style="shape=partialRectangle;overflow=hidden;connectable=0;top=0;left=0;bottom=0;right=0;align=left;spacingLeft=6;strokeColor=#0e8088;fillColor=#FFF2CC;fontColor=#000000;" parent="EuhSBXG35wCDt_b5zXix-105" vertex="1">
                    <mxGeometry x="30" width="250" height="30" as="geometry"/>
                </mxCell>
                <mxCell id="EuhSBXG35wCDt_b5zXix-108" value="" style="shape=partialRectangle;collapsible=0;dropTarget=0;pointerEvents=0;points=[[0,0.5],[1,0.5]];portConstraint=eastwest;top=0;left=0;right=0;bottom=0;strokeColor=#0e8088;fillColor=#FFF2CC;fontColor=#000000;" parent="EuhSBXG35wCDt_b5zXix-98" vertex="1">
                    <mxGeometry y="150" width="280" height="30" as="geometry"/>
                </mxCell>
                <mxCell id="EuhSBXG35wCDt_b5zXix-109" value="" style="shape=partialRectangle;overflow=hidden;connectable=0;top=0;left=0;bottom=0;right=0;strokeColor=#0e8088;fillColor=#FFF2CC;fontColor=#000000;" parent="EuhSBXG35wCDt_b5zXix-108" vertex="1">
                    <mxGeometry width="30" height="30" as="geometry"/>
                </mxCell>
                <mxCell id="EuhSBXG35wCDt_b5zXix-110" value="path varchar(100) NOT NULL" style="shape=partialRectangle;overflow=hidden;connectable=0;top=0;left=0;bottom=0;right=0;align=left;spacingLeft=6;strokeColor=#0e8088;fillColor=#FFF2CC;fontColor=#000000;" parent="EuhSBXG35wCDt_b5zXix-108" vertex="1">
                    <mxGeometry x="30" width="250" height="30" as="geometry"/>
                </mxCell>
                <mxCell id="EuhSBXG35wCDt_b5zXix-111" value="" style="shape=partialRectangle;collapsible=0;dropTarget=0;pointerEvents=0;points=[[0,0.5],[1,0.5]];portConstraint=eastwest;top=0;left=0;right=0;bottom=0;strokeColor=#0e8088;fillColor=#FFF2CC;fontColor=#000000;" parent="EuhSBXG35wCDt_b5zXix-98" vertex="1">
                    <mxGeometry y="180" width="280" height="30" as="geometry"/>
                </mxCell>
                <mxCell id="EuhSBXG35wCDt_b5zXix-112" value="" style="shape=partialRectangle;overflow=hidden;connectable=0;top=0;left=0;bottom=0;right=0;strokeColor=#0e8088;fillColor=#FFF2CC;fontColor=#000000;" parent="EuhSBXG35wCDt_b5zXix-111" vertex="1">
                    <mxGeometry width="30" height="30" as="geometry"/>
                </mxCell>
                <mxCell id="EuhSBXG35wCDt_b5zXix-113" value="created_at datetime NOT NULL" style="shape=partialRectangle;overflow=hidden;connectable=0;top=0;left=0;bottom=0;right=0;align=left;spacingLeft=6;strokeColor=#0e8088;fillColor=#FFF2CC;fontColor=#000000;" parent="EuhSBXG35wCDt_b5zXix-111" vertex="1">
                    <mxGeometry x="30" width="250" height="30" as="geometry"/>
                </mxCell>
                <mxCell id="EuhSBXG35wCDt_b5zXix-114" value="" style="shape=partialRectangle;collapsible=0;dropTarget=0;pointerEvents=0;points=[[0,0.5],[1,0.5]];portConstraint=eastwest;top=0;left=0;right=0;bottom=0;strokeColor=#0e8088;fillColor=#FFF2CC;fontColor=#000000;" parent="EuhSBXG35wCDt_b5zXix-98" vertex="1">
                    <mxGeometry y="210" width="280" height="30" as="geometry"/>
                </mxCell>
                <mxCell id="EuhSBXG35wCDt_b5zXix-115" value="" style="shape=partialRectangle;overflow=hidden;connectable=0;top=0;left=0;bottom=0;right=0;strokeColor=#0e8088;fillColor=#FFF2CC;fontColor=#000000;" parent="EuhSBXG35wCDt_b5zXix-114" vertex="1">
                    <mxGeometry width="30" height="30" as="geometry"/>
                </mxCell>
                <mxCell id="EuhSBXG35wCDt_b5zXix-116" value="updated_at datetime NOT NULL" style="shape=partialRectangle;overflow=hidden;connectable=0;top=0;left=0;bottom=0;right=0;align=left;spacingLeft=6;strokeColor=#0e8088;fillColor=#FFF2CC;fontColor=#000000;" parent="EuhSBXG35wCDt_b5zXix-114" vertex="1">
                    <mxGeometry x="30" width="250" height="30" as="geometry"/>
                </mxCell>
                <mxCell id="EuhSBXG35wCDt_b5zXix-118" style="edgeStyle=orthogonalEdgeStyle;rounded=1;orthogonalLoop=1;jettySize=auto;html=1;exitX=1;exitY=0.5;exitDx=0;exitDy=0;entryX=1;entryY=0.5;entryDx=0;entryDy=0;shadow=0;startArrow=ERone;startFill=0;endArrow=ERzeroToMany;endFill=1;strokeWidth=1;fontColor=#000000;strokeColor=#000000;" parent="1" source="EuhSBXG35wCDt_b5zXix-53" target="EuhSBXG35wCDt_b5zXix-120" edge="1">
                    <mxGeometry relative="1" as="geometry"/>
                </mxCell>
                <mxCell id="EuhSBXG35wCDt_b5zXix-119" style="edgeStyle=orthogonalEdgeStyle;rounded=1;orthogonalLoop=1;jettySize=auto;html=1;exitX=1;exitY=0.5;exitDx=0;exitDy=0;entryX=0;entryY=0.5;entryDx=0;entryDy=0;shadow=0;startArrow=ERone;startFill=0;endArrow=ERzeroToMany;endFill=1;strokeWidth=1;strokeColor=#D6B656;fontColor=#000000;" parent="1" source="C-vyLk0tnHw3VtMMgP7b-24" target="EuhSBXG35wCDt_b5zXix-102" edge="1">
                    <mxGeometry relative="1" as="geometry"/>
                </mxCell>
                <mxCell id="11" style="edgeStyle=orthogonalEdgeStyle;rounded=0;orthogonalLoop=1;jettySize=auto;html=1;exitX=0;exitY=0.5;exitDx=0;exitDy=0;entryX=0;entryY=0.5;entryDx=0;entryDy=0;strokeColor=#000000;startArrow=ERzeroToMany;startFill=1;endArrow=ERone;endFill=0;" edge="1" parent="1" source="EuhSBXG35wCDt_b5zXix-27" target="c16gRC2Nv8gJjdAaMNAA-7">
                    <mxGeometry relative="1" as="geometry"/>
                </mxCell>
            </root>
        </mxGraphModel>
    </diagram>
</mxfile>